# AST/ASF file generated using VICON BodyLanguage
# -----------------------------------------------
:version 1.10
:name VICON
:units
  mass 1.0
  length 0.45
  angle deg
:documentation
   .ast/.asf automatically generated from VICON data using
   VICON BodyBuilder and BodyLanguage model FoxedUp or BRILLIANT.MOD
:root
   order TX TY TZ RX RY RZ
   axis XYZ
   position 0 0 0  
   orientation 0 0 0 
:bonedata
  begin
     id 1 
     name lhipjoint
     direction 0.662698 -0.695252 0.27831 
     length 2.53073 
     axis 0 0 0  XYZ
  end
  begin
     id 2 
     name lfemur
     direction 0.34202 -0.939693 0  
     length 7.16147  
     axis 0 0 20  XYZ
    dof rx ry rz
    limits (-160.0 20.0)
           (-70.0 70.0)
           (-60.0 70.0)
  end
  begin
     id 3 
     name ltibia
     direction 0.34202 -0.939693 0   
     length 7.63967   
     axis 0 0 20   XYZ
    dof rx
    limits (-10.0 170.0)
  end
  begin
     id 4 
     name lfoot
     direction 0.0938457 -0.257721 0.961651   
     length 1.89793   
     axis -90 7.62852e-016 20   XYZ
    dof rx rz
    limits (-45.0 90.0)
           (-70.0 20.0)
  end
  begin
     id 5 
     name ltoes
     direction -0.00116841 -0.0030592 0.999995   
     length 0.955649   
     axis -90 7.62852e-016 20   XYZ
    dof rx
    limits (-90.0 20.0)
  end
  begin
     id 6 
     name rhipjoint
     direction -0.649445 -0.705948 0.282592   
     length 2.49238  
     axis 0 0 0  XYZ 
  end
  begin
     id 7 
     name rfemur
     direction -0.34202 -0.939693 0   
     length 6.90728   
     axis 0 0 -20   XYZ
    dof rx ry rz
    limits (-160.0 20.0)
           (-70.0 70.0)
           (-70.0 60.0)
  end
  begin
     id 8 
     name rtibia
     direction -0.34202 -0.939693 0   
     length 7.72868   
     axis 0 0 -20   XYZ
    dof rx
    limits (-10.0 170.0)
 end
 begin
     id 9 
     name rfoot
     direction -0.0920068 -0.252865 0.963117   
     length 1.97476  
     axis -90 -7.62852e-016 -20   XYZ
    dof rx rz
    limits (-45.0 90.0)
           (-20.0 70.0)
  end
  begin
     id 10 
     name rtoes
     direction 0.000391322 0.00230649 0.999997   
     length 0.992641   
     axis -90 -7.62852e-016 -20   XYZ
    dof rx
    limits (-90.0 20.0)
  end
  begin
     id 11 
     name lowerback
     direction -0.00875327 0.998321 -0.0572635   
     length 2.20024   
     axis 0 0 0   XYZ
    dof rx ry rz
    limits (-20.0 45.0)
           (-30.0 30.0)
           (-30.0 30.0)
  end
  begin
     id 12 
     name upperback
     direction 0.00753931 0.999972 -0.000360425   
     length 2.20538   
     axis 0 0 0   XYZ
    dof rx ry rz
    limits (-20.0 45.0)
           (-30.0 30.0)
           (-30.0 30.0)
  end
  begin
     id 13 
     name thorax
     direction 0.0117767 0.999601 0.0256663   
     length 2.21508   
     axis 0 0 0   XYZ
    dof rx ry rz
    limits (-20.0 45.0)
           (-30.0 30.0)
           (-30.0 30.0)
  end
  begin
     id 14 
     name lowerneck
     direction 0.060228 0.994909 0.0807986   
     length 1.7607   
     axis 0 0 0   XYZ
    dof rx ry rz
    limits (-20.0 45.0)
           (-30.0 30.0)
           (-30.0 30.0)
  end
  begin
     id 15 
     name upperneck
     direction -0.0563647 0.959594 -0.275685   
     length 1.75612   
     axis 0 0 0   XYZ
    dof rx ry rz
    limits (-20.0 45.0)
           (-30.0 30.0)
           (-30.0 30.0)
  end
  begin
     id 16
     name head
     direction -0.0161544 0.99458 -0.102714  
     length 1.79288  
     axis 0 0 0   XYZ
    dof rx ry rz
    limits (-20.0 45.0)
           (-30.0 30.0)
           (-30.0 30.0)
  end
  begin
     id 17 
     name lclavicle
     direction 0.93913 0.332189 -0.087669  
     length 3.52087  
     axis 0 0 0   XYZ
    dof ry rz
    limits (-20.0 10.0)
           (0.0 20.0)
  end
  begin
     id 18 
     name lhumerus
     direction 1 -4.48974e-011 -2.70836e-027   
     length 5.35289   
     axis -180 -30 -90   XYZ
    dof rx ry rz
    limits (-60.0 90.0)
           (-90.0 90.0)
           (-90.0 90.0)
  end
  begin
     id 19
     name lradius
     direction 1 -4.48961e-011 -9.76021e-027   
     length 3.27727   
     axis -180 -30 -90   XYZ
    dof rx
    limits (-10.0 170.0)
  end
  begin
     id 20
     name lwrist
     direction 1 -4.49103e-011 -2.23668e-026   
     length 1.63864   
     axis 1.44924e-014 90 90   XYZ
    dof ry
    limits (-180.0 0.0)
 end
  begin
     id 21 
     name lhand
     direction 1 3.0697e-005 0.000161777   
     length 0.54443   
     axis 2.85318e-014 90 90   XYZ
    dof rx rz
    limits (-90.0 90.0)
           (-45.0 45.0)
  end
  begin
     id 22 
     name lfingers
     direction 1 -4.49027e-011 -8.9447e-026   
     length 0.438912   
     axis 5.70628e-014 90 90   XYZ
    dof rx
    limits (0.0 90.0)
  end
  begin
     id 23
     name lthumb
     direction 0.707058 2.6516e-005 0.707156   
     length 0.630274   
     axis -90 45 -3.53137e-014   XYZ
    dof rx rz
    limits (-45.0 45.0)
           (-45.0 45.0)
  end
  begin
     id 24 
     name rclavicle
     direction -0.95274 0.284984 -0.105215   
     length 3.43401  
     axis 0 0 0   XYZ 
    dof ry rz
    limits (-10.0 20.0)
           (-20.0 0.0)
  end
  begin
     id 25 
     name rhumerus
     direction -0.999999 -0.000575019 -0.00106829  
     length 5.52077   
     axis -180 30 90   XYZ
    dof rx ry rz
    limits (-90.0 60.0)
           (-90.0 90.0)
           (-90.0 90.0)
  end
  begin
     id 26 
     name rradius
     direction -1 -4.4879e-011 -6.35415e-027   
     length 3.32364   
     axis -180 30 90   XYZ
    dof rx
    limits (-10.0 170.0)
  end
  begin
     id 27 
     name rwrist
     direction -1 -4.49048e-011 -9.98542e-027   
     length 1.66182   
     axis 6.32482e-015 -90 -90   XYZ
    dof ry
    limits (-180.0 0.0)
  end
  begin
     id 28
     name rhand
     direction -1 -4.48978e-011 -1.99771e-026   
     length 0.732235   
     axis 1.27479e-014 -90 -90   XYZ
    dof rx rz
    limits (-90.0 90.0)
           (-45.0 45.0)
  end
  begin
     id 29
     name rfingers
     direction -1 -4.49144e-011 -3.99245e-026   
     length 0.590347   
     axis 2.5496e-014 -90 -90   XYZ
    dof rx
    limits (0.0 90.0)
  end
  begin
     id 30
     name rthumb
     direction -0.707107 -6.35121e-011 0.707107   
     length 0.847624   
     axis -90 -45 -2.82974e-014   XYZ
    dof rx rz
    limits (-45.0 45.0)
           (-45.0 45.0)
  end
:hierarchy
  begin
    root lhipjoint rhipjoint lowerback
    lhipjoint lfemur
    lfemur ltibia
    ltibia lfoot
    lfoot ltoes
    rhipjoint rfemur
    rfemur rtibia
    rtibia rfoot
    rfoot rtoes
    lowerback upperback
    upperback thorax
    thorax lowerneck lclavicle rclavicle
    lowerneck upperneck
    upperneck head
    lclavicle lhumerus
    lhumerus lradius
    lradius lwrist
    lwrist lhand lthumb
    lhand lfingers
    rclavicle rhumerus
    rhumerus rradius
    rradius rwrist
    rwrist rhand rthumb
    rhand rfingers
  end

#!OML:ASF G:\Work\Work\Patient Classification 1\Elijah\terrain1\Elijah.ASF
:FULLY-SPECIFIED
:DEGREES
47
root 16.188 24.8343 -4.80087 5.47359 -2.22363 -0.376878
lowerback 7.30383 -0.577254 -5.40563
upperback 1.24889 -1.23076 -1.41838
thorax -2.72044 -0.569297 1.68377
lowerneck -14.7346 14.9078 10.7757
upperneck 33.7509 24.6856 -13.4754
head 18.5211 9.86426 -2.44568
rclavicle -9.74045e-015 7.15625e-015
rhumerus -40.4155 -6.61811 -81.5682
rradius 31.5229
rwrist 1.209
rhand -11.8719 21.8671
rfingers 7.12502
rthumb 14.1805 -7.62887
lclavicle -9.74045e-015 7.15625e-015
lhumerus -22.6109 25.7132 76.9576
lradius 30.6354
lwrist 2.71547
lhand -11.4791 24.5162
lfingers 7.12502
lthumb 14.5589 53.9853
rfemur -46.1265 -19.7343 24.5077
rtibia 96.6194
rfoot 11.4645 3.90194
rtoes -14.2726
lfemur 1.05135 3.27271 -24.6746
ltibia 6.76673
lfoot 6.97615 -2.67825
ltoes -13.6841
48
root 16.1736 24.8384 -4.70833 5.11754 -1.04651 -0.575533
lowerback 7.65084 -1.0344 -5.48422
upperback 1.07224 -1.8627 -1.03479
thorax -3.03867 -0.86926 2.19368
lowerneck -12.4936 14.8661 11.6658
upperneck 32.6802 24.7166 -14.5925
head 17.7946 10.0724 -3.19684
rclavicle 2.84262e-014 3.4191e-014
rhumerus -40.8104 -6.19849 -81.179
rradius 30.9887
rwrist 1.35896
rhand -11.686 21.7407
rfingers 7.12502
rthumb 14.3595 -7.74266
lclavicle 2.84262e-014 3.4191e-014
lhumerus -23.4821 25.783 76.8672
lradius 30.8547
lwrist 3.16893
lhand -11.3816 25.3164
lfingers 7.12502
lthumb 14.6529 54.7787
rfemur -45.549 -20.4657 24.9085
rtibia 94.8364
rfoot 10.1135 3.13241
rtoes -13.6158
lfemur 1.17172 2.21216 -24.2534
ltibia 7.87406
lfoot 6.4052 -2.70888
ltoes -13.5036
49
root 16.1706 24.8207 -4.63498 5.17809 -1.0261 -0.615501
lowerback 7.59563 -0.473907 -4.4915
upperback 1.67858 -1.03255 -1.7489
thorax -2.47438 -0.489725 0.813936
lowerneck -15.7529 14.7806 11.1778
upperneck 33.6607 24.0664 -13.0112
head 18.5626 9.66388 -2.38075
rclavicle 3.37934e-015 6.36111e-015
rhumerus -40.0519 -8.99503 -81.2614
rradius 30.7854
rwrist 1.74117
rhand -11.7398 21.9529
rfingers 7.12502
rthumb 14.3077 -7.53411
lclavicle 3.37934e-015 6.36111e-015
lhumerus -20.9282 24.1536 77.576
lradius 29.9922
lwrist 2.99157
lhand -11.1755 24.4173
lfingers 7.12502
lthumb 14.8514 53.865
rfemur -45.7969 -19.9923 25.1578
rtibia 93.0992
rfoot 8.9993 2.61514
rtoes -14.0748
lfemur 0.957002 2.25038 -24.2247
ltibia 8.80844
lfoot 5.69428 -2.70319
ltoes -14.5646
50
root 16.1736 24.7987 -4.55986 5.24467 -0.613585 -0.428095
lowerback 7.71488 -0.677816 -4.80063
upperback 1.33798 -1.34362 -1.55939
thorax -2.86736 -0.628791 1.21679
lowerneck -12.371 14.5685 12.9306
upperneck 31.2248 23.8973 -15.4032
head 17.2056 9.88103 -3.90163
rclavicle 1.47101e-014 2.14687e-014
rhumerus -40.7684 -8.38727 -81.0019
rradius 30.8935
rwrist 1.61225
rhand -11.8506 22.0267
rfingers 7.12502
rthumb 14.2009 -7.46789
lclavicle 1.47101e-014 2.14687e-014
lhumerus -21.6705 24.9335 77.3503
lradius 29.7205
lwrist 2.63799
lhand -11.0731 23.5619
lfingers 7.12502
lthumb 14.9501 53.0023
rfemur -45.8835 -19.9698 25.0779
rtibia 91.1996
rfoot 8.40193 2.44009
rtoes -13.9643
lfemur 0.740164 1.87684 -24.4264
ltibia 9.70085
lfoot 4.82038 -2.64993
ltoes -16.1656
51
root 16.1737 24.7779 -4.47918 5.22065 -0.454429 -0.37969
lowerback 7.9161 -0.998881 -5.56382
upperback 0.62574 -1.85723 -0.972532
thorax -3.64781 -0.840375 2.316
lowerneck -10.3426 14.5871 12.906
upperneck 30.9273 24.2296 -15.8853
head 16.7404 10.1231 -4.16251
rclavicle 3.77691e-015 1.27222e-014
rhumerus -42.0659 -6.7243 -80.4997
rradius 30.8609
rwrist 1.44154
rhand -11.9231 22.3009
rfingers 7.12502
rthumb 14.1311 -7.19859
lclavicle 3.77691e-015 1.27222e-014
lhumerus -23.9284 25.9919 76.754
lradius 30.0479
lwrist 2.60009
lhand -11.397 23.4815
lfingers 7.12502
lthumb 14.6381 52.9449
rfemur -45.7966 -19.6356 25.1305
rtibia 89.0585
rfoot 8.09591 2.13817
rtoes -13.4993
lfemur 0.508923 1.77509 -24.4816
ltibia 10.8139
lfoot 4.69027 -2.7518
ltoes -14.1348
52
root 16.1686 24.7562 -4.39612 5.23859 -0.867446 -0.501615
lowerback 6.88052 -0.492271 -4.60596
upperback 1.72733 -1.01475 -1.58884
thorax -2.0214 -0.489676 1.03191
lowerneck -13.705 14.7197 11.9657
upperneck 31.6784 24.0162 -14.4805
head 17.4202 9.80992 -3.24616
rclavicle -7.95139e-015 -1.03368e-014
rhumerus -40.4147 -9.39002 -80.5975
rradius 30.2186
rwrist 2.34233
rhand -12.0118 22.53
rfingers 7.12502
rthumb 14.0456 -6.9754
lclavicle -7.95139e-015 -1.03368e-014
lhumerus -21.0669 24.9336 77.5214
lradius 29.4202
lwrist 2.39727
lhand -11.5783 23.684
lfingers 7.12502
lthumb 14.4634 53.1599
rfemur -45.7474 -18.6404 25.4078
rtibia 86.6582
rfoot 7.60354 1.82129
rtoes -14.3128
lfemur 0.471299 2.02352 -24.3852
ltibia 11.4651
lfoot 4.6498 -2.54387
ltoes -12.71
53
root 16.1612 24.7279 -4.31784 5.25109 -1.54585 -0.442849
lowerback 6.57042 -0.27235 -4.88949
upperback 1.73391 -0.720404 -1.50115
thorax -1.85176 -0.346084 1.25347
lowerneck -15.5154 14.7218 10.6604
upperneck 33.5483 23.9694 -12.6726
head 18.2465 9.63542 -2.2021
rclavicle -1.19271e-015 1.27222e-014
rhumerus -40.2847 -9.63467 -80.2719
rradius 29.7681
rwrist 3.03092
rhand -11.9963 22.1124
rfingers 7.12502
rthumb 14.0605 -7.39195
lclavicle -1.19271e-015 1.27222e-014
lhumerus -21.0378 25.374 77.5058
lradius 29.1685
lwrist 2.20388
lhand -11.4852 24.9863
lfingers 7.12502
lthumb 14.5531 54.4558
rfemur -45.6753 -17.4131 25.4627
rtibia 84.1699
rfoot 6.57003 1.62895
rtoes -17.115
lfemur 0.246259 2.42581 -24.5003
ltibia 12.516
lfoot 4.1268 -2.42722
ltoes -11.7504
54
root 16.1439 24.7187 -4.2183 5.02783 0.298835 -0.195258
lowerback 7.00295 -0.880768 -5.11617
upperback 1.59547 -1.57359 -1.36401
thorax -2.17631 -0.759716 1.59872
lowerneck -9.92988 14.7035 12.9885
upperneck 29.5933 24.1747 -16.1213
head 16.0141 10.1767 -4.26381
rclavicle 4.57205e-015 1.51076e-014
rhumerus -40.6393 -9.56506 -80.0468
rradius 29.4903
rwrist 3.16185
rhand -12.0049 21.8303
rfingers 7.12502
rthumb 14.0523 -7.67462
lclavicle 4.57205e-015 1.51076e-014
lhumerus -21.82 25.5546 77.2425
lradius 29.3362
lwrist 2.02253
lhand -11.5155 25.7227
lfingers 7.12502
lthumb 14.5239 55.1943
rfemur -44.6967 -18.6367 25.3483
rtibia 81.4041
rfoot 6.0699 0.977331
rtoes -14.5044
lfemur 0.307056 1.50914 -24.386
ltibia 13.4352
lfoot 3.81003 -3.68485
ltoes -13.3989
55
root 16.1287 24.6692 -4.15831 5.1956 -0.225532 -0.154933
lowerback 7.13476 -0.631476 -5.36406
upperback 1.30291 -1.28281 -1.36677
thorax -2.56613 -0.599655 1.7152
lowerneck -14.1644 14.5217 11.1379
upperneck 33.0935 23.8093 -13.3909
head 17.8779 9.66218 -2.71928
rclavicle 5.36719e-015 -2.3059e-014
rhumerus -40.9912 -9.75801 -79.9336
rradius 29.2713
rwrist 2.9963
rhand -11.9156 21.5154
rfingers 7.12502
rthumb 14.1383 -7.98358
lclavicle 5.36719e-015 -2.3059e-014
lhumerus -22.4706 25.4212 77.0111
lradius 29.5465
lwrist 1.62668
lhand -11.644 25.6936
lfingers 7.12502
lthumb 14.4001 55.1741
rfemur -44.6431 -17.3807 25.4676
rtibia 78.6734
rfoot 5.97613 -0.00428862
rtoes -11.8107
lfemur 0.0772861 2.09138 -24.4148
ltibia 13.9986
lfoot 3.31341 -4.10712
ltoes -16.906
56
root 16.1185 24.6438 -4.06738 5.33185 -0.0933343 -0.0241336
lowerback 6.88493 -0.635926 -5.46353
upperback 1.20534 -1.28413 -1.41353
thorax -2.5266 -0.599021 1.71908
lowerneck -13.9247 14.6061 11.314
upperneck 33.1116 23.8896 -13.3242
head 17.8584 9.73917 -2.71114
rclavicle 4.37326e-015 0
rhumerus -41.2202 -10.1242 -79.79
rradius 29.2254
rwrist 3.13852
rhand -11.7517 21.2589
rfingers 7.12502
rthumb 14.2962 -8.22897
lclavicle 4.37326e-015 0
lhumerus -22.9295 25.3866 76.7693
lradius 29.6034
lwrist 1.23175
lhand -11.7697 26.0367
lfingers 7.12502
lthumb 14.2789 55.5258
rfemur -44.2806 -16.8657 25.4458
rtibia 75.5711
rfoot 5.52543 -0.795998
rtoes -12.3292
lfemur 0.0730892 2.17695 -24.4599
ltibia 14.4025
lfoot 2.73912 -4.548
ltoes -19.9309
57
root 16.1136 24.614 -3.95762 5.20306 -0.17251 0.428628
lowerback 6.62619 -0.653386 -5.95081
upperback 1.32264 -1.31847 -1.45757
thorax -2.24777 -0.622024 1.94263
lowerneck -13.0503 14.7593 11.7016
upperneck 32.4094 24.2114 -14.0263
head 17.5481 9.92606 -3.03257
rclavicle -9.93923e-015 1.82882e-014
rhumerus -41.2047 -10.1312 -79.626
rradius 29.0905
rwrist 3.39828
rhand -11.6935 21.6178
rfingers 7.12502
rthumb 14.3523 -7.86607
lclavicle -9.93923e-015 1.82882e-014
lhumerus -23.1272 25.9579 76.5504
lradius 29.3072
lwrist 0.787929
lhand -12.0963 25.9364
lfingers 7.12502
lthumb 13.9642 55.4474
rfemur -43.3798 -16.4789 24.9189
rtibia 72.3772
rfoot 5.01033 -1.42952
rtoes -12.9566
lfemur 0.358644 2.17272 -24.9073
ltibia 15.0165
lfoot 1.751 -4.75684
ltoes -22.3428
